<svg id="Layer_1" data-name="Layer 1" xmlns="http://www.w3.org/2000/svg" xmlns:xlink="http://www.w3.org/1999/xlink" viewBox="0 0 290.08 289"><defs><style>.cls-1,.cls-3{fill:#58595b;}.cls-1,.cls-2{stroke:#231f20;}.cls-1,.cls-2,.cls-3,.cls-4,.cls-5,.cls-6,.cls-87,.cls-88,.cls-89,.cls-90,.cls-91{stroke-miterlimit:10;}.cls-2{fill:#594a42;}.cls-3,.cls-4,.cls-5,.cls-6,.cls-87,.cls-88,.cls-89,.cls-90,.cls-91{stroke:#fff;}.cls-4{fill:#fff200;}.cls-5{fill:none;}.cls-6{fill:#4a3434;}.cls-7{fill:url(#linear-gradient);}.cls-8{fill:url(#linear-gradient-2);}.cls-9{fill:url(#linear-gradient-3);}.cls-10{fill:url(#linear-gradient-4);}.cls-11{fill:url(#linear-gradient-5);}.cls-12{fill:url(#linear-gradient-6);}.cls-13{fill:url(#linear-gradient-7);}.cls-14{fill:url(#linear-gradient-8);}.cls-15{fill:url(#linear-gradient-9);}.cls-16{fill:url(#linear-gradient-10);}.cls-17{fill:url(#linear-gradient-11);}.cls-18{fill:url(#linear-gradient-12);}.cls-19{fill:url(#linear-gradient-13);}.cls-20{fill:url(#linear-gradient-14);}.cls-21{fill:url(#linear-gradient-15);}.cls-22{fill:url(#linear-gradient-16);}.cls-23{fill:url(#linear-gradient-17);}.cls-24{fill:url(#linear-gradient-18);}.cls-25{fill:url(#linear-gradient-19);}.cls-26{fill:url(#linear-gradient-20);}.cls-27{fill:url(#linear-gradient-21);}.cls-28{fill:url(#linear-gradient-22);}.cls-29{fill:url(#linear-gradient-23);}.cls-30{fill:url(#linear-gradient-24);}.cls-31{fill:url(#linear-gradient-25);}.cls-32{fill:url(#linear-gradient-26);}.cls-33{fill:url(#linear-gradient-27);}.cls-34{fill:url(#linear-gradient-28);}.cls-35{fill:url(#linear-gradient-29);}.cls-36{fill:url(#linear-gradient-30);}.cls-37{fill:url(#linear-gradient-31);}.cls-38{fill:url(#linear-gradient-32);}.cls-39{fill:url(#linear-gradient-33);}.cls-40{fill:url(#linear-gradient-34);}.cls-41{fill:url(#linear-gradient-35);}.cls-42{fill:url(#linear-gradient-36);}.cls-43{fill:url(#linear-gradient-37);}.cls-44{fill:url(#linear-gradient-38);}.cls-45{fill:url(#linear-gradient-39);}.cls-46{fill:url(#linear-gradient-40);}.cls-47{fill:url(#linear-gradient-41);}.cls-48{fill:url(#linear-gradient-42);}.cls-49{fill:url(#linear-gradient-43);}.cls-50{fill:url(#linear-gradient-44);}.cls-51{fill:url(#linear-gradient-45);}.cls-52{fill:url(#linear-gradient-46);}.cls-53{fill:url(#linear-gradient-47);}.cls-54{fill:url(#linear-gradient-48);}.cls-55{fill:url(#linear-gradient-49);}.cls-56{fill:url(#linear-gradient-50);}.cls-57{fill:url(#linear-gradient-51);}.cls-58{fill:url(#linear-gradient-52);}.cls-59{fill:url(#linear-gradient-53);}.cls-60{fill:url(#linear-gradient-54);}.cls-61{fill:url(#linear-gradient-55);}.cls-62{fill:url(#linear-gradient-56);}.cls-63{fill:url(#linear-gradient-57);}.cls-64{fill:url(#linear-gradient-58);}.cls-65{fill:url(#linear-gradient-59);}.cls-66{fill:url(#linear-gradient-60);}.cls-67{fill:url(#linear-gradient-61);}.cls-68{fill:url(#linear-gradient-62);}.cls-69{fill:url(#linear-gradient-63);}.cls-70{fill:url(#linear-gradient-64);}.cls-71{fill:url(#linear-gradient-65);}.cls-72{fill:url(#linear-gradient-66);}.cls-73{fill:url(#linear-gradient-67);}.cls-74{fill:url(#linear-gradient-68);}.cls-75{fill:url(#linear-gradient-69);}.cls-76{fill:url(#linear-gradient-70);}.cls-77{fill:url(#linear-gradient-71);}.cls-78{fill:url(#linear-gradient-72);}.cls-79{fill:url(#linear-gradient-73);}.cls-80{fill:url(#linear-gradient-74);}.cls-81{fill:url(#linear-gradient-75);}.cls-82{fill:url(#linear-gradient-76);}.cls-83{fill:url(#linear-gradient-77);}.cls-84{fill:url(#linear-gradient-78);}.cls-85{fill:url(#linear-gradient-79);}.cls-86{fill:url(#linear-gradient-80);}.cls-87{fill:url(#linear-gradient-81);}.cls-88{fill:url(#linear-gradient-82);}.cls-89{fill:url(#linear-gradient-83);}.cls-90{fill:url(#linear-gradient-84);}.cls-91{fill:#939598;}</style><linearGradient id="linear-gradient" x1="331.2" y1="105" x2="350.4" y2="105" gradientUnits="userSpaceOnUse"><stop offset="0" stop-color="#4a170e"/><stop offset="0.48" stop-color="#6c3f18"/><stop offset="0.79"/></linearGradient><linearGradient id="linear-gradient-2" x1="100.8" y1="75" x2="120" y2="75" xlink:href="#linear-gradient"/><linearGradient id="linear-gradient-3" x1="177.6" y1="75" x2="196.8" y2="75" xlink:href="#linear-gradient"/><linearGradient id="linear-gradient-4" x1="158.4" y1="75" x2="177.6" y2="75" xlink:href="#linear-gradient"/><linearGradient id="linear-gradient-5" x1="139.2" y1="75" x2="158.4" y2="75" xlink:href="#linear-gradient"/><linearGradient id="linear-gradient-6" x1="120" y1="75" x2="139.2" y2="75" xlink:href="#linear-gradient"/><linearGradient id="linear-gradient-7" x1="196.8" y1="75" x2="216" y2="75" xlink:href="#linear-gradient"/><linearGradient id="linear-gradient-8" x1="216" y1="75" x2="235.2" y2="75" xlink:href="#linear-gradient"/><linearGradient id="linear-gradient-9" x1="235.2" y1="75" x2="254.4" y2="75" xlink:href="#linear-gradient"/><linearGradient id="linear-gradient-10" x1="254.4" y1="75" x2="273.6" y2="75" xlink:href="#linear-gradient"/><linearGradient id="linear-gradient-11" x1="273.6" y1="75" x2="292.8" y2="75" xlink:href="#linear-gradient"/><linearGradient id="linear-gradient-12" x1="292.8" y1="75" x2="312" y2="75" xlink:href="#linear-gradient"/><linearGradient id="linear-gradient-13" x1="312" y1="75" x2="331.2" y2="75" xlink:href="#linear-gradient"/><linearGradient id="linear-gradient-14" x1="100.8" y1="81" x2="120" y2="81" xlink:href="#linear-gradient"/><linearGradient id="linear-gradient-15" x1="177.6" y1="81" x2="196.8" y2="81" xlink:href="#linear-gradient"/><linearGradient id="linear-gradient-16" x1="158.4" y1="81" x2="177.6" y2="81" xlink:href="#linear-gradient"/><linearGradient id="linear-gradient-17" x1="139.2" y1="81" x2="158.4" y2="81" xlink:href="#linear-gradient"/><linearGradient id="linear-gradient-18" x1="120" y1="81" x2="139.2" y2="81" xlink:href="#linear-gradient"/><linearGradient id="linear-gradient-19" x1="196.8" y1="81" x2="216" y2="81" xlink:href="#linear-gradient"/><linearGradient id="linear-gradient-20" x1="216" y1="81" x2="235.2" y2="81" xlink:href="#linear-gradient"/><linearGradient id="linear-gradient-21" x1="235.2" y1="81" x2="254.4" y2="81" xlink:href="#linear-gradient"/><linearGradient id="linear-gradient-22" x1="254.4" y1="81" x2="273.6" y2="81" xlink:href="#linear-gradient"/><linearGradient id="linear-gradient-23" x1="273.6" y1="81" x2="292.8" y2="81" xlink:href="#linear-gradient"/><linearGradient id="linear-gradient-24" x1="292.8" y1="81" x2="312" y2="81" xlink:href="#linear-gradient"/><linearGradient id="linear-gradient-25" x1="312" y1="81" x2="331.2" y2="81" xlink:href="#linear-gradient"/><linearGradient id="linear-gradient-26" x1="100.8" y1="87" x2="120" y2="87" xlink:href="#linear-gradient"/><linearGradient id="linear-gradient-27" x1="177.6" y1="87" x2="196.8" y2="87" xlink:href="#linear-gradient"/><linearGradient id="linear-gradient-28" x1="158.4" y1="87" x2="177.6" y2="87" xlink:href="#linear-gradient"/><linearGradient id="linear-gradient-29" x1="139.2" y1="87" x2="158.4" y2="87" xlink:href="#linear-gradient"/><linearGradient id="linear-gradient-30" x1="120" y1="87" x2="139.2" y2="87" xlink:href="#linear-gradient"/><linearGradient id="linear-gradient-31" x1="196.8" y1="87" x2="216" y2="87" xlink:href="#linear-gradient"/><linearGradient id="linear-gradient-32" x1="216" y1="87" x2="235.2" y2="87" xlink:href="#linear-gradient"/><linearGradient id="linear-gradient-33" x1="235.2" y1="87" x2="254.4" y2="87" xlink:href="#linear-gradient"/><linearGradient id="linear-gradient-34" x1="254.4" y1="87" x2="273.6" y2="87" xlink:href="#linear-gradient"/><linearGradient id="linear-gradient-35" x1="273.6" y1="87" x2="292.8" y2="87" xlink:href="#linear-gradient"/><linearGradient id="linear-gradient-36" x1="292.8" y1="87" x2="312" y2="87" xlink:href="#linear-gradient"/><linearGradient id="linear-gradient-37" x1="312" y1="87" x2="331.2" y2="87" xlink:href="#linear-gradient"/><linearGradient id="linear-gradient-38" x1="100.8" y1="93" x2="120" y2="93" xlink:href="#linear-gradient"/><linearGradient id="linear-gradient-39" x1="177.6" y1="93" x2="196.8" y2="93" xlink:href="#linear-gradient"/><linearGradient id="linear-gradient-40" x1="158.4" y1="93" x2="177.6" y2="93" xlink:href="#linear-gradient"/><linearGradient id="linear-gradient-41" x1="139.2" y1="93" x2="158.4" y2="93" xlink:href="#linear-gradient"/><linearGradient id="linear-gradient-42" x1="120" y1="93" x2="139.2" y2="93" xlink:href="#linear-gradient"/><linearGradient id="linear-gradient-43" x1="196.8" y1="93" x2="216" y2="93" xlink:href="#linear-gradient"/><linearGradient id="linear-gradient-44" x1="216" y1="93" x2="235.2" y2="93" xlink:href="#linear-gradient"/><linearGradient id="linear-gradient-45" x1="235.2" y1="93" x2="254.4" y2="93" xlink:href="#linear-gradient"/><linearGradient id="linear-gradient-46" x1="254.4" y1="93" x2="273.6" y2="93" xlink:href="#linear-gradient"/><linearGradient id="linear-gradient-47" x1="273.6" y1="93" x2="292.8" y2="93" xlink:href="#linear-gradient"/><linearGradient id="linear-gradient-48" x1="292.8" y1="93" x2="312" y2="93" xlink:href="#linear-gradient"/><linearGradient id="linear-gradient-49" x1="312" y1="93" x2="331.2" y2="93" xlink:href="#linear-gradient"/><linearGradient id="linear-gradient-50" x1="100.8" y1="99" x2="120" y2="99" xlink:href="#linear-gradient"/><linearGradient id="linear-gradient-51" x1="177.6" y1="99" x2="196.8" y2="99" xlink:href="#linear-gradient"/><linearGradient id="linear-gradient-52" x1="158.4" y1="99" x2="177.6" y2="99" xlink:href="#linear-gradient"/><linearGradient id="linear-gradient-53" x1="139.2" y1="99" x2="158.4" y2="99" xlink:href="#linear-gradient"/><linearGradient id="linear-gradient-54" x1="120" y1="99" x2="139.2" y2="99" xlink:href="#linear-gradient"/><linearGradient id="linear-gradient-55" x1="196.8" y1="99" x2="216" y2="99" xlink:href="#linear-gradient"/><linearGradient id="linear-gradient-56" x1="216" y1="99" x2="235.2" y2="99" xlink:href="#linear-gradient"/><linearGradient id="linear-gradient-57" x1="235.2" y1="99" x2="254.4" y2="99" xlink:href="#linear-gradient"/><linearGradient id="linear-gradient-58" x1="254.4" y1="99" x2="273.6" y2="99" xlink:href="#linear-gradient"/><linearGradient id="linear-gradient-59" x1="273.6" y1="99" x2="292.8" y2="99" xlink:href="#linear-gradient"/><linearGradient id="linear-gradient-60" x1="292.8" y1="99" x2="312" y2="99" xlink:href="#linear-gradient"/><linearGradient id="linear-gradient-61" x1="312" y1="99" x2="331.2" y2="99" xlink:href="#linear-gradient"/><linearGradient id="linear-gradient-62" x1="100.8" x2="120" xlink:href="#linear-gradient"/><linearGradient id="linear-gradient-63" x1="177.6" x2="196.8" xlink:href="#linear-gradient"/><linearGradient id="linear-gradient-64" x1="158.4" x2="177.6" xlink:href="#linear-gradient"/><linearGradient id="linear-gradient-65" x1="139.2" x2="158.4" xlink:href="#linear-gradient"/><linearGradient id="linear-gradient-66" x1="120" x2="139.2" xlink:href="#linear-gradient"/><linearGradient id="linear-gradient-67" x1="196.8" x2="216" xlink:href="#linear-gradient"/><linearGradient id="linear-gradient-68" x1="216" x2="235.2" xlink:href="#linear-gradient"/><linearGradient id="linear-gradient-69" x1="235.2" x2="254.4" xlink:href="#linear-gradient"/><linearGradient id="linear-gradient-70" x1="254.4" x2="273.6" xlink:href="#linear-gradient"/><linearGradient id="linear-gradient-71" x1="273.6" x2="292.8" xlink:href="#linear-gradient"/><linearGradient id="linear-gradient-72" x1="292.8" x2="312" xlink:href="#linear-gradient"/><linearGradient id="linear-gradient-73" x1="312" x2="331.2" xlink:href="#linear-gradient"/><linearGradient id="linear-gradient-74" x1="81.6" x2="100.8" xlink:href="#linear-gradient"/><linearGradient id="linear-gradient-75" x1="331.2" y1="99" x2="350.4" y2="99" xlink:href="#linear-gradient"/><linearGradient id="linear-gradient-76" x1="81.6" y1="99" x2="100.8" y2="99" xlink:href="#linear-gradient"/><linearGradient id="linear-gradient-77" x1="331.2" y1="93" x2="346.8" y2="93" xlink:href="#linear-gradient"/><linearGradient id="linear-gradient-78" x1="85.2" y1="93" x2="100.8" y2="93" xlink:href="#linear-gradient"/><linearGradient id="linear-gradient-79" x1="270.6" y1="87" x2="285.49" y2="87" gradientTransform="translate(128.25) scale(0.75 1)" xlink:href="#linear-gradient"/><linearGradient id="linear-gradient-80" x1="92.51" y1="87" x2="107.4" y2="87" gradientTransform="translate(20.25) scale(0.75 1)" xlink:href="#linear-gradient"/><linearGradient id="linear-gradient-81" x1="37.04" y1="93.4" x2="73.04" y2="93.4" gradientUnits="userSpaceOnUse"><stop offset="0" stop-color="#67308f"/><stop offset="0.02" stop-color="#65308b"/><stop offset="0.19" stop-color="#53316b"/><stop offset="0.37" stop-color="#453253"/><stop offset="0.56" stop-color="#3b3341"/><stop offset="0.76" stop-color="#353336"/><stop offset="1" stop-color="#333"/></linearGradient><linearGradient id="linear-gradient-82" x1="37.04" y1="215.34" x2="73.04" y2="215.34" xlink:href="#linear-gradient-81"/><linearGradient id="linear-gradient-83" x1="217.04" y1="109.66" x2="253.04" y2="109.66" xlink:href="#linear-gradient-81"/><linearGradient id="linear-gradient-84" x1="217.04" y1="231.6" x2="253.04" y2="231.6" xlink:href="#linear-gradient-81"/></defs><title>door</title><rect class="cls-1" x="1.04" y="36.5" width="36" height="252"/><rect class="cls-2" x="73.04" y="36.5" width="144" height="216"/><line class="cls-3" x1="28.04" y1="54.5" x2="28.04" y2="279.5"/><line class="cls-3" x1="19.04" y1="54.5" x2="19.04" y2="279.5"/><line class="cls-3" x1="10.04" y1="54.5" x2="10.04" y2="279.5"/><rect class="cls-1" x="253.04" y="36.5" width="36" height="252"/><line class="cls-3" x1="280.04" y1="54.5" x2="280.04" y2="279.5"/><line class="cls-3" x1="271.04" y1="54.5" x2="271.04" y2="279.5"/><line class="cls-3" x1="262.04" y1="54.5" x2="262.04" y2="279.5"/><rect class="cls-4" x="82.04" y="135.5" width="9" height="23.85"/><path class="cls-5" d="M171.19,198h35.62c5.08,0,9.19-4.7,9.19-10.5v-51c0-5.8-4.11-10.5-9.19-10.5H171.19c-5.08,0-9.19,4.7-9.19,10.5v51C162,193.3,166.11,198,171.19,198Z" transform="translate(-70.96 -71.5)"/><path class="cls-5" d="M171,234H207c4.95,0,9,6.43,9,14.36v43.28c0,7.93-4,14.36-9,14.36H171c-4.95,0-9-6.43-9-14.36V248.36C162,240.43,166,234,171,234Z" transform="translate(-70.96 -71.5)"/><path class="cls-5" d="M225,136.5v51c0,5.8,4.11,10.5,9.19,10.5h35.62c5.08,0,9.19-4.7,9.19-10.5v-51c0-5.8-4.11-10.5-9.19-10.5H234.19C229.11,126,225,130.7,225,136.5Z" transform="translate(-70.96 -71.5)"/><path class="cls-5" d="M225,248.36v43.28c0,7.93,4,14.36,9,14.36H270c5,0,9-6.43,9-14.36V248.36c0-7.93-4-14.36-9-14.36H234C229,234,225,240.43,225,248.36Z" transform="translate(-70.96 -71.5)"/><polygon class="cls-6" points="29.84 0.5 260.24 0.5 289.04 36.5 1.04 36.5 29.84 0.5"/><path class="cls-7" d="M331.2,102s0,6,9.6,6,9.6-6,9.6-6Z" transform="translate(-70.96 -71.5)"/><path class="cls-8" d="M100.8,72s0,6,9.6,6,9.6-6,9.6-6Z" transform="translate(-70.96 -71.5)"/><path class="cls-9" d="M177.6,72s0,6,9.6,6,9.6-6,9.6-6Z" transform="translate(-70.96 -71.5)"/><path class="cls-10" d="M158.4,72s0,6,9.6,6,9.6-6,9.6-6Z" transform="translate(-70.96 -71.5)"/><path class="cls-11" d="M139.2,72s0,6,9.6,6,9.6-6,9.6-6Z" transform="translate(-70.96 -71.5)"/><path class="cls-12" d="M120,72s0,6,9.6,6,9.6-6,9.6-6Z" transform="translate(-70.96 -71.5)"/><path class="cls-13" d="M196.8,72s0,6,9.6,6,9.6-6,9.6-6Z" transform="translate(-70.96 -71.5)"/><path class="cls-14" d="M216,72s0,6,9.6,6,9.6-6,9.6-6Z" transform="translate(-70.96 -71.5)"/><path class="cls-15" d="M235.2,72s0,6,9.6,6,9.6-6,9.6-6Z" transform="translate(-70.96 -71.5)"/><path class="cls-16" d="M254.4,72s0,6,9.6,6,9.6-6,9.6-6Z" transform="translate(-70.96 -71.5)"/><path class="cls-17" d="M273.6,72s0,6,9.6,6,9.6-6,9.6-6Z" transform="translate(-70.96 -71.5)"/><path class="cls-18" d="M292.8,72s0,6,9.6,6,9.6-6,9.6-6Z" transform="translate(-70.96 -71.5)"/><path class="cls-19" d="M312,72s0,6,9.6,6,9.6-6,9.6-6Z" transform="translate(-70.96 -71.5)"/><path class="cls-20" d="M100.8,78s0,6,9.6,6,9.6-6,9.6-6Z" transform="translate(-70.96 -71.5)"/><path class="cls-21" d="M177.6,78s0,6,9.6,6,9.6-6,9.6-6Z" transform="translate(-70.96 -71.5)"/><path class="cls-22" d="M158.4,78s0,6,9.6,6,9.6-6,9.6-6Z" transform="translate(-70.96 -71.5)"/><path class="cls-23" d="M139.2,78s0,6,9.6,6,9.6-6,9.6-6Z" transform="translate(-70.96 -71.5)"/><path class="cls-24" d="M120,78s0,6,9.6,6,9.6-6,9.6-6Z" transform="translate(-70.96 -71.5)"/><path class="cls-25" d="M196.8,78s0,6,9.6,6,9.6-6,9.6-6Z" transform="translate(-70.96 -71.5)"/><path class="cls-26" d="M216,78s0,6,9.6,6,9.6-6,9.6-6Z" transform="translate(-70.96 -71.5)"/><path class="cls-27" d="M235.2,78s0,6,9.6,6,9.6-6,9.6-6Z" transform="translate(-70.96 -71.5)"/><path class="cls-28" d="M254.4,78s0,6,9.6,6,9.6-6,9.6-6Z" transform="translate(-70.96 -71.5)"/><path class="cls-29" d="M273.6,78s0,6,9.6,6,9.6-6,9.6-6Z" transform="translate(-70.96 -71.5)"/><path class="cls-30" d="M292.8,78s0,6,9.6,6,9.6-6,9.6-6Z" transform="translate(-70.96 -71.5)"/><path class="cls-31" d="M312,78s0,6,9.6,6,9.6-6,9.6-6Z" transform="translate(-70.96 -71.5)"/><path class="cls-32" d="M100.8,84s0,6,9.6,6,9.6-6,9.6-6Z" transform="translate(-70.96 -71.5)"/><path class="cls-33" d="M177.6,84s0,6,9.6,6,9.6-6,9.6-6Z" transform="translate(-70.96 -71.5)"/><path class="cls-34" d="M158.4,84s0,6,9.6,6,9.6-6,9.6-6Z" transform="translate(-70.96 -71.5)"/><path class="cls-35" d="M139.2,84s0,6,9.6,6,9.6-6,9.6-6Z" transform="translate(-70.96 -71.5)"/><path class="cls-36" d="M120,84s0,6,9.6,6,9.6-6,9.6-6Z" transform="translate(-70.96 -71.5)"/><path class="cls-37" d="M196.8,84s0,6,9.6,6,9.6-6,9.6-6Z" transform="translate(-70.96 -71.5)"/><path class="cls-38" d="M216,84s0,6,9.6,6,9.6-6,9.6-6Z" transform="translate(-70.96 -71.5)"/><path class="cls-39" d="M235.2,84s0,6,9.6,6,9.6-6,9.6-6Z" transform="translate(-70.96 -71.5)"/><path class="cls-40" d="M254.4,84s0,6,9.6,6,9.6-6,9.6-6Z" transform="translate(-70.96 -71.5)"/><path class="cls-41" d="M273.6,84s0,6,9.6,6,9.6-6,9.6-6Z" transform="translate(-70.96 -71.5)"/><path class="cls-42" d="M292.8,84s0,6,9.6,6,9.6-6,9.6-6Z" transform="translate(-70.96 -71.5)"/><path class="cls-43" d="M312,84s0,6,9.6,6,9.6-6,9.6-6Z" transform="translate(-70.96 -71.5)"/><path class="cls-44" d="M100.8,90s0,6,9.6,6,9.6-6,9.6-6Z" transform="translate(-70.96 -71.5)"/><path class="cls-45" d="M177.6,90s0,6,9.6,6,9.6-6,9.6-6Z" transform="translate(-70.96 -71.5)"/><path class="cls-46" d="M158.4,90s0,6,9.6,6,9.6-6,9.6-6Z" transform="translate(-70.96 -71.5)"/><path class="cls-47" d="M139.2,90s0,6,9.6,6,9.6-6,9.6-6Z" transform="translate(-70.96 -71.5)"/><path class="cls-48" d="M120,90s0,6,9.6,6,9.6-6,9.6-6Z" transform="translate(-70.96 -71.5)"/><path class="cls-49" d="M196.8,90s0,6,9.6,6,9.6-6,9.6-6Z" transform="translate(-70.96 -71.5)"/><path class="cls-50" d="M216,90s0,6,9.6,6,9.6-6,9.6-6Z" transform="translate(-70.96 -71.5)"/><path class="cls-51" d="M235.2,90s0,6,9.6,6,9.6-6,9.6-6Z" transform="translate(-70.96 -71.5)"/><path class="cls-52" d="M254.4,90s0,6,9.6,6,9.6-6,9.6-6Z" transform="translate(-70.96 -71.5)"/><path class="cls-53" d="M273.6,90s0,6,9.6,6,9.6-6,9.6-6Z" transform="translate(-70.96 -71.5)"/><path class="cls-54" d="M292.8,90s0,6,9.6,6,9.6-6,9.6-6Z" transform="translate(-70.96 -71.5)"/><path class="cls-55" d="M312,90s0,6,9.6,6,9.6-6,9.6-6Z" transform="translate(-70.96 -71.5)"/><path class="cls-56" d="M100.8,96s0,6,9.6,6,9.6-6,9.6-6Z" transform="translate(-70.96 -71.5)"/><path class="cls-57" d="M177.6,96s0,6,9.6,6,9.6-6,9.6-6Z" transform="translate(-70.96 -71.5)"/><path class="cls-58" d="M158.4,96s0,6,9.6,6,9.6-6,9.6-6Z" transform="translate(-70.96 -71.5)"/><path class="cls-59" d="M139.2,96s0,6,9.6,6,9.6-6,9.6-6Z" transform="translate(-70.96 -71.5)"/><path class="cls-60" d="M120,96s0,6,9.6,6,9.6-6,9.6-6Z" transform="translate(-70.96 -71.5)"/><path class="cls-61" d="M196.8,96s0,6,9.6,6,9.6-6,9.6-6Z" transform="translate(-70.96 -71.5)"/><path class="cls-62" d="M216,96s0,6,9.6,6,9.6-6,9.6-6Z" transform="translate(-70.96 -71.5)"/><path class="cls-63" d="M235.2,96s0,6,9.6,6,9.6-6,9.6-6Z" transform="translate(-70.96 -71.5)"/><path class="cls-64" d="M254.4,96s0,6,9.6,6,9.6-6,9.6-6Z" transform="translate(-70.96 -71.5)"/><path class="cls-65" d="M273.6,96s0,6,9.6,6,9.6-6,9.6-6Z" transform="translate(-70.96 -71.5)"/><path class="cls-66" d="M292.8,96s0,6,9.6,6,9.6-6,9.6-6Z" transform="translate(-70.96 -71.5)"/><path class="cls-67" d="M312,96s0,6,9.6,6,9.6-6,9.6-6Z" transform="translate(-70.96 -71.5)"/><path class="cls-68" d="M100.8,102s0,6,9.6,6,9.6-6,9.6-6Z" transform="translate(-70.96 -71.5)"/><path class="cls-69" d="M177.6,102s0,6,9.6,6,9.6-6,9.6-6Z" transform="translate(-70.96 -71.5)"/><path class="cls-70" d="M158.4,102s0,6,9.6,6,9.6-6,9.6-6Z" transform="translate(-70.96 -71.5)"/><path class="cls-71" d="M139.2,102s0,6,9.6,6,9.6-6,9.6-6Z" transform="translate(-70.96 -71.5)"/><path class="cls-72" d="M120,102s0,6,9.6,6,9.6-6,9.6-6Z" transform="translate(-70.96 -71.5)"/><path class="cls-73" d="M196.8,102s0,6,9.6,6,9.6-6,9.6-6Z" transform="translate(-70.96 -71.5)"/><path class="cls-74" d="M216,102s0,6,9.6,6,9.6-6,9.6-6Z" transform="translate(-70.96 -71.5)"/><path class="cls-75" d="M235.2,102s0,6,9.6,6,9.6-6,9.6-6Z" transform="translate(-70.96 -71.5)"/><path class="cls-76" d="M254.4,102s0,6,9.6,6,9.6-6,9.6-6Z" transform="translate(-70.96 -71.5)"/><path class="cls-77" d="M273.6,102s0,6,9.6,6,9.6-6,9.6-6Z" transform="translate(-70.96 -71.5)"/><path class="cls-78" d="M292.8,102s0,6,9.6,6,9.6-6,9.6-6Z" transform="translate(-70.96 -71.5)"/><path class="cls-79" d="M312,102s0,6,9.6,6,9.6-6,9.6-6Z" transform="translate(-70.96 -71.5)"/><path class="cls-80" d="M81.6,102s0,6,9.6,6,9.6-6,9.6-6Z" transform="translate(-70.96 -71.5)"/><path class="cls-81" d="M331.2,96s0,6,9.6,6,9.6-6,9.6-6Z" transform="translate(-70.96 -71.5)"/><path class="cls-82" d="M81.6,96s0,6,9.6,6,9.6-6,9.6-6Z" transform="translate(-70.96 -71.5)"/><path class="cls-83" d="M331.2,90s0,6,9.6,6,4.8-6,4.8-6Z" transform="translate(-70.96 -71.5)"/><path class="cls-84" d="M86.4,90s-4.8,6,4.8,6,9.6-6,9.6-6Z" transform="translate(-70.96 -71.5)"/><path class="cls-85" d="M331.2,84s0,6,7.2,6,2.4-6,2.4-6Z" transform="translate(-70.96 -71.5)"/><path class="cls-86" d="M91.2,84s-4.8,6,2.4,6,7.2-6,7.2-6Z" transform="translate(-70.96 -71.5)"/><polygon class="cls-87" points="37.04 36.5 37.04 150.31 73.04 142.72 73.04 36.5 37.04 36.5"/><polygon class="cls-88" points="37.04 150.31 37.04 288.5 73.04 288.5 73.04 142.18 37.04 150.31"/><polygon class="cls-89" points="217.04 36.5 217.04 174.69 253.04 182.82 253.04 36.5 217.04 36.5"/><polygon class="cls-90" points="217.04 174.69 217.04 288.5 253.04 288.5 253.04 182.82 217.04 174.69"/><rect class="cls-91" x="55.04" y="252.5" width="180" height="18"/><rect class="cls-91" x="46.04" y="270.5" width="198" height="18"/></svg>