<svg id="Layer_1" data-name="Layer 1" xmlns="http://www.w3.org/2000/svg" xmlns:xlink="http://www.w3.org/1999/xlink" viewBox="0 0 898.18 284.99"><defs><style>.cls-1{fill:#493333;}.cls-2{fill:#202020;}.cls-3{fill:url(#linear-gradient);}.cls-4{fill:url(#linear-gradient-2);}.cls-5{fill:url(#linear-gradient-3);}.cls-6{fill:url(#linear-gradient-4);}.cls-7{fill:url(#linear-gradient-5);}.cls-8{fill:url(#linear-gradient-6);}.cls-9{fill:url(#linear-gradient-7);}.cls-10{fill:url(#linear-gradient-8);}.cls-11{fill:url(#linear-gradient-9);}.cls-12{fill:url(#linear-gradient-10);}.cls-13{fill:url(#linear-gradient-11);}.cls-14{fill:url(#linear-gradient-12);}.cls-15{fill:url(#linear-gradient-13);}.cls-16{fill:url(#linear-gradient-14);}.cls-17{fill:url(#linear-gradient-15);}.cls-18{fill:url(#linear-gradient-16);}.cls-19{fill:url(#linear-gradient-17);}.cls-20{fill:url(#linear-gradient-18);}.cls-21{fill:url(#linear-gradient-19);}.cls-22{fill:url(#linear-gradient-20);}.cls-23{fill:url(#linear-gradient-21);}.cls-24{fill:url(#linear-gradient-22);}.cls-25{fill:url(#linear-gradient-23);}.cls-26{fill:url(#linear-gradient-24);}.cls-27{fill:url(#linear-gradient-25);}.cls-28{fill:url(#linear-gradient-26);}.cls-29{fill:url(#linear-gradient-27);}.cls-30{fill:url(#linear-gradient-28);}.cls-31{fill:url(#linear-gradient-29);}.cls-32{fill:url(#linear-gradient-30);}.cls-33{fill:url(#linear-gradient-31);}.cls-34{fill:url(#linear-gradient-32);}.cls-35{fill:url(#linear-gradient-33);}.cls-36{fill:url(#linear-gradient-34);}.cls-37{fill:url(#linear-gradient-35);}.cls-38{fill:url(#linear-gradient-36);}.cls-39{fill:url(#linear-gradient-37);}.cls-40{fill:url(#linear-gradient-38);}.cls-41{fill:url(#linear-gradient-39);}.cls-42{fill:url(#linear-gradient-40);}.cls-43{fill:url(#linear-gradient-41);}.cls-44{fill:url(#linear-gradient-42);}.cls-45{fill:url(#linear-gradient-43);}.cls-46{fill:url(#linear-gradient-44);}.cls-47{fill:url(#linear-gradient-45);}.cls-48{fill:url(#linear-gradient-46);}.cls-49{fill:url(#linear-gradient-47);}.cls-50{fill:url(#linear-gradient-48);}.cls-51{fill:url(#linear-gradient-49);}.cls-52{fill:url(#linear-gradient-50);}.cls-53{fill:url(#linear-gradient-51);}.cls-54{fill:url(#linear-gradient-52);}.cls-55{fill:url(#linear-gradient-53);}.cls-56{fill:url(#linear-gradient-54);}.cls-57{fill:url(#linear-gradient-55);}.cls-58{fill:url(#linear-gradient-56);}.cls-59{fill:url(#linear-gradient-57);}.cls-60{fill:url(#linear-gradient-58);}.cls-61{fill:url(#linear-gradient-59);}.cls-62{fill:url(#linear-gradient-60);}.cls-63{fill:url(#linear-gradient-61);}.cls-64{fill:url(#linear-gradient-62);}.cls-65{fill:url(#linear-gradient-63);}.cls-66{fill:url(#linear-gradient-64);}.cls-67{fill:url(#linear-gradient-65);}.cls-68{fill:url(#linear-gradient-66);}.cls-69{fill:url(#linear-gradient-67);}.cls-70{fill:url(#linear-gradient-68);}.cls-71{fill:url(#linear-gradient-69);}.cls-72{fill:url(#linear-gradient-70);}.cls-73{fill:url(#linear-gradient-71);}.cls-74{fill:url(#linear-gradient-72);}.cls-75{fill:url(#linear-gradient-73);}.cls-76{fill:url(#linear-gradient-74);}.cls-77{fill:url(#linear-gradient-75);}.cls-78{fill:url(#linear-gradient-76);}.cls-79{fill:url(#linear-gradient-77);}.cls-80{fill:url(#linear-gradient-78);}.cls-81{fill:url(#linear-gradient-79);}.cls-82{fill:url(#linear-gradient-80);}</style><linearGradient id="linear-gradient" x1="805.41" y1="258.41" x2="864.81" y2="258.41" gradientUnits="userSpaceOnUse"><stop offset="0" stop-color="#4d0f00"/><stop offset="0.48" stop-color="#6d3c00"/><stop offset="0.79"/></linearGradient><linearGradient id="linear-gradient-2" x1="92.61" y1="25.91" x2="152.01" y2="25.91" xlink:href="#linear-gradient"/><linearGradient id="linear-gradient-3" x1="330.21" y1="25.91" x2="389.61" y2="25.91" xlink:href="#linear-gradient"/><linearGradient id="linear-gradient-4" x1="270.81" y1="25.91" x2="330.21" y2="25.91" xlink:href="#linear-gradient"/><linearGradient id="linear-gradient-5" x1="211.41" y1="25.91" x2="270.81" y2="25.91" xlink:href="#linear-gradient"/><linearGradient id="linear-gradient-6" x1="152.01" y1="25.91" x2="211.41" y2="25.91" xlink:href="#linear-gradient"/><linearGradient id="linear-gradient-7" x1="389.61" y1="25.91" x2="449.01" y2="25.91" xlink:href="#linear-gradient"/><linearGradient id="linear-gradient-8" x1="449.01" y1="25.91" x2="508.41" y2="25.91" xlink:href="#linear-gradient"/><linearGradient id="linear-gradient-9" x1="508.41" y1="25.91" x2="567.81" y2="25.91" xlink:href="#linear-gradient"/><linearGradient id="linear-gradient-10" x1="567.81" y1="25.91" x2="627.21" y2="25.91" xlink:href="#linear-gradient"/><linearGradient id="linear-gradient-11" x1="627.21" y1="25.91" x2="686.61" y2="25.91" xlink:href="#linear-gradient"/><linearGradient id="linear-gradient-12" x1="686.61" y1="25.91" x2="746.01" y2="25.91" xlink:href="#linear-gradient"/><linearGradient id="linear-gradient-13" x1="746.01" y1="25.91" x2="805.41" y2="25.91" xlink:href="#linear-gradient"/><linearGradient id="linear-gradient-14" x1="92.61" y1="72.41" x2="152.01" y2="72.41" xlink:href="#linear-gradient"/><linearGradient id="linear-gradient-15" x1="330.21" y1="72.41" x2="389.61" y2="72.41" xlink:href="#linear-gradient"/><linearGradient id="linear-gradient-16" x1="270.81" y1="72.41" x2="330.21" y2="72.41" xlink:href="#linear-gradient"/><linearGradient id="linear-gradient-17" x1="211.41" y1="72.41" x2="270.81" y2="72.41" xlink:href="#linear-gradient"/><linearGradient id="linear-gradient-18" x1="152.01" y1="72.41" x2="211.41" y2="72.41" xlink:href="#linear-gradient"/><linearGradient id="linear-gradient-19" x1="389.61" y1="72.41" x2="449.01" y2="72.41" xlink:href="#linear-gradient"/><linearGradient id="linear-gradient-20" x1="449.01" y1="72.41" x2="508.41" y2="72.41" xlink:href="#linear-gradient"/><linearGradient id="linear-gradient-21" x1="508.41" y1="72.41" x2="567.81" y2="72.41" xlink:href="#linear-gradient"/><linearGradient id="linear-gradient-22" x1="567.81" y1="72.41" x2="627.21" y2="72.41" xlink:href="#linear-gradient"/><linearGradient id="linear-gradient-23" x1="627.21" y1="72.41" x2="686.61" y2="72.41" xlink:href="#linear-gradient"/><linearGradient id="linear-gradient-24" x1="686.61" y1="72.41" x2="746.01" y2="72.41" xlink:href="#linear-gradient"/><linearGradient id="linear-gradient-25" x1="746.01" y1="72.41" x2="805.41" y2="72.41" xlink:href="#linear-gradient"/><linearGradient id="linear-gradient-26" x1="92.61" y1="118.91" x2="152.01" y2="118.91" xlink:href="#linear-gradient"/><linearGradient id="linear-gradient-27" x1="330.21" y1="118.91" x2="389.61" y2="118.91" xlink:href="#linear-gradient"/><linearGradient id="linear-gradient-28" x1="270.81" y1="118.91" x2="330.21" y2="118.91" xlink:href="#linear-gradient"/><linearGradient id="linear-gradient-29" x1="211.41" y1="118.91" x2="270.81" y2="118.91" xlink:href="#linear-gradient"/><linearGradient id="linear-gradient-30" x1="152.01" y1="118.91" x2="211.41" y2="118.91" xlink:href="#linear-gradient"/><linearGradient id="linear-gradient-31" x1="389.61" y1="118.91" x2="449.01" y2="118.91" xlink:href="#linear-gradient"/><linearGradient id="linear-gradient-32" x1="449.01" y1="118.91" x2="508.41" y2="118.91" xlink:href="#linear-gradient"/><linearGradient id="linear-gradient-33" x1="508.41" y1="118.91" x2="567.81" y2="118.91" xlink:href="#linear-gradient"/><linearGradient id="linear-gradient-34" x1="567.81" y1="118.91" x2="627.21" y2="118.91" xlink:href="#linear-gradient"/><linearGradient id="linear-gradient-35" x1="627.21" y1="118.91" x2="686.61" y2="118.91" xlink:href="#linear-gradient"/><linearGradient id="linear-gradient-36" x1="686.61" y1="118.91" x2="746.01" y2="118.91" xlink:href="#linear-gradient"/><linearGradient id="linear-gradient-37" x1="746.01" y1="118.91" x2="805.41" y2="118.91" xlink:href="#linear-gradient"/><linearGradient id="linear-gradient-38" x1="92.61" y1="165.41" x2="152.01" y2="165.41" xlink:href="#linear-gradient"/><linearGradient id="linear-gradient-39" x1="330.21" y1="165.41" x2="389.61" y2="165.41" xlink:href="#linear-gradient"/><linearGradient id="linear-gradient-40" x1="270.81" y1="165.41" x2="330.21" y2="165.41" xlink:href="#linear-gradient"/><linearGradient id="linear-gradient-41" x1="211.41" y1="165.41" x2="270.81" y2="165.41" xlink:href="#linear-gradient"/><linearGradient id="linear-gradient-42" x1="152.01" y1="165.41" x2="211.41" y2="165.41" xlink:href="#linear-gradient"/><linearGradient id="linear-gradient-43" x1="389.61" y1="165.41" x2="449.01" y2="165.41" xlink:href="#linear-gradient"/><linearGradient id="linear-gradient-44" x1="449.01" y1="165.41" x2="508.41" y2="165.41" xlink:href="#linear-gradient"/><linearGradient id="linear-gradient-45" x1="508.41" y1="165.41" x2="567.81" y2="165.41" xlink:href="#linear-gradient"/><linearGradient id="linear-gradient-46" x1="567.81" y1="165.41" x2="627.21" y2="165.41" xlink:href="#linear-gradient"/><linearGradient id="linear-gradient-47" x1="627.21" y1="165.41" x2="686.61" y2="165.41" xlink:href="#linear-gradient"/><linearGradient id="linear-gradient-48" x1="686.61" y1="165.41" x2="746.01" y2="165.41" xlink:href="#linear-gradient"/><linearGradient id="linear-gradient-49" x1="746.01" y1="165.41" x2="805.41" y2="165.41" xlink:href="#linear-gradient"/><linearGradient id="linear-gradient-50" x1="92.61" y1="211.91" x2="152.01" y2="211.91" xlink:href="#linear-gradient"/><linearGradient id="linear-gradient-51" x1="330.21" y1="211.91" x2="389.61" y2="211.91" xlink:href="#linear-gradient"/><linearGradient id="linear-gradient-52" x1="270.81" y1="211.91" x2="330.21" y2="211.91" xlink:href="#linear-gradient"/><linearGradient id="linear-gradient-53" x1="211.41" y1="211.91" x2="270.81" y2="211.91" xlink:href="#linear-gradient"/><linearGradient id="linear-gradient-54" x1="152.01" y1="211.91" x2="211.41" y2="211.91" xlink:href="#linear-gradient"/><linearGradient id="linear-gradient-55" x1="389.61" y1="211.91" x2="449.01" y2="211.91" xlink:href="#linear-gradient"/><linearGradient id="linear-gradient-56" x1="449.01" y1="211.91" x2="508.41" y2="211.91" xlink:href="#linear-gradient"/><linearGradient id="linear-gradient-57" x1="508.41" y1="211.91" x2="567.81" y2="211.91" xlink:href="#linear-gradient"/><linearGradient id="linear-gradient-58" x1="567.81" y1="211.91" x2="627.21" y2="211.91" xlink:href="#linear-gradient"/><linearGradient id="linear-gradient-59" x1="627.21" y1="211.91" x2="686.61" y2="211.91" xlink:href="#linear-gradient"/><linearGradient id="linear-gradient-60" x1="686.61" y1="211.91" x2="746.01" y2="211.91" xlink:href="#linear-gradient"/><linearGradient id="linear-gradient-61" x1="746.01" y1="211.91" x2="805.41" y2="211.91" xlink:href="#linear-gradient"/><linearGradient id="linear-gradient-62" x1="92.61" y1="258.41" x2="152.01" y2="258.41" xlink:href="#linear-gradient"/><linearGradient id="linear-gradient-63" x1="330.21" y1="258.41" x2="389.61" y2="258.41" xlink:href="#linear-gradient"/><linearGradient id="linear-gradient-64" x1="270.81" y1="258.41" x2="330.21" y2="258.41" xlink:href="#linear-gradient"/><linearGradient id="linear-gradient-65" x1="211.41" y1="258.41" x2="270.81" y2="258.41" xlink:href="#linear-gradient"/><linearGradient id="linear-gradient-66" x1="152.01" y1="258.41" x2="211.41" y2="258.41" xlink:href="#linear-gradient"/><linearGradient id="linear-gradient-67" x1="389.61" y1="258.41" x2="449.01" y2="258.41" xlink:href="#linear-gradient"/><linearGradient id="linear-gradient-68" x1="449.01" y1="258.41" x2="508.41" y2="258.41" xlink:href="#linear-gradient"/><linearGradient id="linear-gradient-69" x1="508.41" y1="258.41" x2="567.81" y2="258.41" xlink:href="#linear-gradient"/><linearGradient id="linear-gradient-70" x1="567.81" y1="258.41" x2="627.21" y2="258.41" xlink:href="#linear-gradient"/><linearGradient id="linear-gradient-71" x1="627.21" y1="258.41" x2="686.61" y2="258.41" xlink:href="#linear-gradient"/><linearGradient id="linear-gradient-72" x1="686.61" y1="258.41" x2="746.01" y2="258.41" xlink:href="#linear-gradient"/><linearGradient id="linear-gradient-73" x1="746.01" y1="258.41" x2="805.41" y2="258.41" xlink:href="#linear-gradient"/><linearGradient id="linear-gradient-74" x1="33.21" y1="258.41" x2="92.61" y2="258.41" xlink:href="#linear-gradient"/><linearGradient id="linear-gradient-75" x1="805.41" y1="211.91" x2="864.81" y2="211.91" xlink:href="#linear-gradient"/><linearGradient id="linear-gradient-76" x1="33.21" y1="211.91" x2="92.61" y2="211.91" xlink:href="#linear-gradient"/><linearGradient id="linear-gradient-77" x1="805.41" y1="165.41" x2="853.67" y2="165.41" xlink:href="#linear-gradient"/><linearGradient id="linear-gradient-78" x1="44.34" y1="165.41" x2="92.61" y2="165.41" xlink:href="#linear-gradient"/><linearGradient id="linear-gradient-79" x1="859.71" y1="118.91" x2="905.77" y2="118.91" gradientTransform="translate(160.63) scale(0.75 1)" xlink:href="#linear-gradient"/><linearGradient id="linear-gradient-80" x1="7.24" y1="118.91" x2="53.31" y2="118.91" gradientTransform="translate(52.63) scale(0.75 1)" xlink:href="#linear-gradient"/></defs><title>roof</title><polygon class="cls-1" points="92.61 2.66 805.4 2.66 894.5 281.66 3.5 281.66 92.61 2.66"/><path class="cls-2" d="M89.51,4.36c1-3.07.26-2.09.34-2.58C88.29,7,89.65,4.26,89.51,4.36Z"/><polygon class="cls-2" points="74.18 55.48 74.3 54.53 72.31 62.15 74.18 55.48"/><path class="cls-2" d="M59,103c2.12-4.28,5.39-17.26,8.34-25.66l.6-1.34.67-4C65.4,82.34,61.5,95.83,59,103Z"/><path class="cls-2" d="M49.43,127.89c.76-1.48-1.53,5.56,2-5.88l-.41,1Z"/><path class="cls-2" d="M51,123.06c1.58-5-1.27,3.2,0,0Z"/><path class="cls-2" d="M43.76,146.22l1.87-6.67c-.6,1.33-2.51,7.19-1.93,5C41.67,151.33,42.27,150,43.76,146.22Z"/><path class="cls-2" d="M42.26,152.63l1-3.44A16.8,16.8,0,0,0,42.26,152.63Z"/><path class="cls-2" d="M45.35,141.87l-2.1,7.32a7.54,7.54,0,0,0,1-3.36C44.25,146.49,44.51,145,45.35,141.87Z"/><path class="cls-2" d="M46.76,137.8c1.33-3.65,3-8.4,1.07-1.71C51.77,123.45,50.7,125.16,46.76,137.8Z"/><path class="cls-2" d="M58.92,105.67l1.78-4.88,1.14-4.35C61.27,98.61,58.61,105.91,58.92,105.67Z"/><path class="cls-2" d="M30.29,187.19c0,.46,1.09-2.09,1.43-2.53l1.39-4.92C32.21,182.21,30.61,186.93,30.29,187.19Z"/><path class="cls-2" d="M31.72,184.66,29.64,192C31.75,185.53,32,184.3,31.72,184.66Z"/><polygon class="cls-2" points="42.63 154.05 45.94 141.91 41.91 156.36 42.63 154.05"/><polygon class="cls-2" points="21.38 215.02 22.36 210.78 20.52 218.3 21.38 215.02"/><path class="cls-2" d="M15.54,233.5c.7-3.15-1.81,4-.94.75-1.56,5-2.69,9.39-3.7,13.32C12.09,243.43,13.51,239.07,15.54,233.5Z"/><path class="cls-2" d="M9.14,254.14c.59-2.07,1.15-4.23,1.76-6.57C10.27,249.76,9.67,251.93,9.14,254.14Z"/><path class="cls-2" d="M25.61,204.42a37,37,0,0,0-2.25,5.6l1.32-2.73Z"/><path class="cls-2" d="M24.73,207.19l-.05.1c-1,3.11-1.7,5.26-2,6.18C22.94,212.68,23.56,210.79,24.73,207.19Z"/><path class="cls-2" d="M25.84,203.7l-.23.72A2,2,0,0,0,25.84,203.7Z"/><path class="cls-2" d="M36.17,173c-1.14,4.35-3.75,13.36-.64,4.83C36.23,174.71,34.45,179.59,36.17,173Z"/><path class="cls-2" d="M27.48,200.3l2.57-7.71c-.16.12-.76,1.46-.19-.69Z"/><polygon class="cls-2" points="26.4 204.13 27.48 200.3 26.53 203.16 26.4 204.13"/><path class="cls-2" d="M13.76,241c-.89,3.4-2,7.06-3.34,11.2,1.5-4.4,3-9,4.39-13.31C14.88,238.24,15.26,236.25,13.76,241Z"/><path class="cls-2" d="M19.12,224.58l-.21.75C19.09,224.89,19.22,224.52,19.12,224.58Z"/><path class="cls-2" d="M16,284l-.69-.08a1.26,1.26,0,0,1-.16.07Z"/><path class="cls-2" d="M15.12,238.17c1.14-3.3,1.68-5.32,2.16-7.26-.75,2.5-1.57,5.15-2.47,8C14.78,239.18,14.8,239.25,15.12,238.17Z"/><path class="cls-2" d="M5.71,265.55c.64-1.71,1.34-3.65,2.06-5.7A59.38,59.38,0,0,0,5.71,265.55Z"/><path class="cls-2" d="M18.44,226.42l.14-.5C18.15,227,18.23,226.86,18.44,226.42Z"/><path class="cls-2" d="M18.44,226.42c-.49,1.73-.82,3.11-1.16,4.49.61-2,1.17-3.93,1.63-5.58C18.75,225.74,18.57,226.14,18.44,226.42Z"/><path class="cls-2" d="M29,281.29c-.62.4-9.81.77-17.74.34a18.45,18.45,0,0,0-3.71.39c-.61.17-.62.39,0,.61a6.46,6.46,0,0,0,.63.18c.23.05.59.11.8.17.5.12,1.08.24,1.74.35,1.32.23,2.91.45,4.61.63.25-.17.25-.33,8.28-.57-2.81-.21-17.82-.5-11-.86,10.64-.21,8.72.14,13.89.35-4.39-.5,13.53-.72,11.22-1.45l-9.33.26C28.18,281.58,31.57,281.4,29,281.29Z"/><path class="cls-2" d="M2.08,278.71l1.28-4.19c-.52,1.53-1,2.91-1.47,4.3L0,284.22l7.73.29,1.43,0,.88,0,1.5-.07,2.07-.12a6.8,6.8,0,0,0,1.58-.22L.31,284l2.25-7Z"/><path class="cls-2" d="M7.88,260.39c-.38,2.59-2.62,10.21-.7,5.72,2.93-9.25,1.73-6.58,3.31-12.16-4.66,14.94,1.14-4.36-2.53,6.34.86-3,1.68-5.59,2.46-8.09l-2.65,7.65.14-.33,0-.07v0c.26-.63.36-.83.09-.12l-.09.32a2.62,2.62,0,0,1-.06.72c-1.46,4.29-.32.65.06-.72,0-.06,0-.18,0-.2l0,0-4.55,15C4.43,271.38,5.68,267.42,7.88,260.39Z"/><path class="cls-2" d="M33.86,186.12c-.18.45-.2.42-.24.44C33.36,187.54,33.28,187.92,33.86,186.12Z"/><path class="cls-2" d="M31.66,192.18a52.55,52.55,0,0,1,1.58-5.58c1.1-3,.19.08.38,0,.57-2.16,2.08-7.53-.25-.93l-.28,1.08c-2.06,6-5,13.52-4.76,12.45A59.35,59.35,0,0,0,31.66,192.18Z"/><path class="cls-2" d="M19.73,226.75,16,239.25,18.34,233l-.32.25C20.37,226.24,19.62,227.68,19.73,226.75Z"/><polygon class="cls-2" points="17.53 284.25 15.8 284.71 23.34 284.06 17.53 284.25"/><polygon class="cls-2" points="34.49 284.2 33.87 284.59 38.35 284.35 34.49 284.2"/><path class="cls-2" d="M862.67,189.79l-1.27-3.62C862,187.89,862.37,189,862.67,189.79Z"/><path class="cls-2" d="M871.09,216.25l.4.59C871,215.64,870.76,215.17,871.09,216.25Z"/><path class="cls-2" d="M451.09,284.15c5.59.37,11.83.94,11.16.5l-1.72-.43C456.63,284.29,453.63,284.25,451.09,284.15Z"/><path class="cls-2" d="M736.4,281.56l-1.63-.13-3.77.41Z"/><path class="cls-2" d="M740.35,279.77l7.36.28C746.06,280,743.69,279.86,740.35,279.77Z"/><path class="cls-2" d="M816.1,45.46l-1.78-4.13C816.45,48,815.72,45,816.1,45.46Z"/><path class="cls-2" d="M208.23,284c4.82.17,8.65.24,12,.26C214.45,284.05,209.76,283.68,208.23,284Z"/><path class="cls-2" d="M870.38,198.8c-.79-2.22-1.18-3.14-1.25-3.05C869.94,198,870.43,199.31,870.38,198.8Z"/><path class="cls-2" d="M234.18,284.3l-2.55-.1c-3.52.07-7.07.13-11.38.1A134.77,134.77,0,0,0,234.18,284.3Z"/><path class="cls-2" d="M299.43,5.14l-1.25,0C298.06,5.14,298.61,5.15,299.43,5.14Z"/><path class="cls-2" d="M139.19.76l6.58,0C144.59.7,142.61.7,139.19.76Z"/><path class="cls-2" d="M102.75,284.39c-3.6,0-.57,0,0,0Z"/><path class="cls-2" d="M85.25,282.67a4.31,4.31,0,0,0,1.44-.21A6.35,6.35,0,0,1,85.25,282.67Z"/><path class="cls-2" d="M270,281.6h.31C269.25,281.51,269.44,281.53,270,281.6Z"/><path class="cls-2" d="M97.33,284.19c1.35.05,2.91.1,4.6.13C101.19,284.28,99.79,284.24,97.33,284.19Z"/><path class="cls-2" d="M98.06,284.39l-3.14,0C94.46,284.42,94.86,284.47,98.06,284.39Z"/><path class="cls-2" d="M107.76,284.36c-2.06,0-4,0-5.83,0,.71,0,1,.05.82.07Z"/><path class="cls-2" d="M594.12,4l-.77,0C589.72,4.12,591.31,4.09,594.12,4Z"/><path class="cls-2" d="M544.73,279.65l-.41,0h.53Z"/><path class="cls-2" d="M557.65,279.32a87.39,87.39,0,0,1-12.8.36l4.27,1.25Z"/><path class="cls-2" d="M842.33,126.49l2.38,8.76c-3.94-10.24-6.14-17.85-4.07-9.57,1.69.81,10.86,33.56,12.54,34.35l1.55,5.78c-.51-1.64-.67-1.87-1.17-3.49,2.92,11.28,3.56,7.93,7.94,22.27,1.49,5,2.41,8.54,1.17,5.2l3.86,11c1,3.24.53,2.52-.47-.7l5.5,16.88-.07-.11c1,2.34,3,7.71,4,10.34,1.18,4.36-.83-2.11-.64-1l3.3,9.26c.89,3.93-1.92-3.73-3.93-10.22,1.5,9.16,2.8,7.67,8.07,26.78l-3-8.79c1.08,5.94,3.55,12.75,6.29,22.9-.52-2.45-5.24-20.38-1.67-10.32.81,2.89,2,6.68,4,12.08-.23.1.12,1.48.79,3.67l1.22,3.83,1,3a6,6,0,0,0-.79-.35c.12.25.23.5.33.67a7.56,7.56,0,0,0-1,.33l-.13,0-.07,0-.19,0-.87.09c-.62.07-1.33.13-2.27.19-8.47-.07-10.23-.56-12.22-1-13.57-.1,9.37.8-6.69.92-11.29-.25-19.21,0-32.71.4-7.9-.22,1.38-.39-1.45-.58l-7,.51c-1.71,0-1.16-.17-.88-.25-5.9.2-.48.64-9.76.82-2.5.7-19-1-30.52-.23-2.83-.18,1.37-.39.5-.64-15.75.52-13.5.38-26.43,1.09l-11-.42c8.1.48-2.25,1-11.31,1.51,2.88.23,5.33.44,7,.53l-14.46.35c-1.75-.11-.29-.33,2.08-.6l-2.65.16c-5.17-.24-2.49-.61,1.21-1l5.21.39c3.57-.39,6.91-.82,6.17-1.19-.94.07-2.75.13-4.74.17.93-.11,1.53-.2,1.1-.26a43.69,43.69,0,0,0-4.37.23l-3.28-.71-.8.28-18.91-.44c-13.54.71-25.31,1.77-46.79,2.07,5.33-.53,1.15-.86,1.44-1.48,5.86.66,16.63-.28,27.77-.14-5.81-.07-4.54-.37-3.06-.47l-19.85.6c.45-.51-4.22-.38-9.4-.59,3.92,1-14.8.66-22.88,1-.5-.34,1.43-.68,11.29-.6-10.87-.75-14.05,1.18-24.73.54a34.17,34.17,0,0,0,4.66-.13c-5.62.3-19.36.06-16.13-.23h2.4c-16-.12-48.63,0-51,.85a9.67,9.67,0,0,1,3.06-1.2l-28.5,2.86c2.51-.73-7.13-2.47,6.12-2.88-3.81-.11-8.51-.23-16.53,0,2.59.1,6.46,1.06,2.92,1.12C521,280,524,280.39,512,279.69c3.89.16-.43,1.31-6.58,1.27,1-.17-.51-1.13,1.74-1.25l-15.3,1.12c3.82-.2.67-.95-2.75-1.27,1.59.22-13.23,0-17.31.09l6.49.27c-17.28-.17-17.07,1.58-34.2,1.52,2.07-.23,5.12-1.43-3.59-1.57a280.21,280.21,0,0,1-32.85,3.21l-2.91-.33-11.63.38c7.24-.87,27.57-2.69,38.67-3.4-6.46-.26-1.8-.39-11.48-.36-3.42-.31,5.28-.47,8.12-.49l-22.54-.2c1,.68-17.23.68-16.37,1.24l24.48-.7c1,.67-14.16,1.91-30.13,1.79-4.06-.27,3-1.2,2.71-1.42-2.07.23-15.16.44-16.63.28l6.78-.36c-8.89-.26-14.51.89-25.2.25-3.68-.05-11-.87-11.64-.47,6,.77,7.19,3.14,3.18,3.72-1.3-.06-19.37-.74-23.58-1.12-6.07-.6,9.12-1.43,3.95-1.95a36,36,0,0,1-5,.49c-3.88-.16,1.6-.57-6.82-.49-1.4.68-17.11-.06-4,.58-8.24.19-8.75-.14-18.42-.11,3.08.44-8.68,1.49-16.92,1.69.48-.17-1.37-.4-2.27-.5-16.87-.06-25.93-.37-41.66-.38-1.45-.17-9-.36-5.81-.66-2.26.12-4.34.35-9.2.37-9.39-.59,10.82-.09,3.66-.8-.61.4-12.55.55-19.46.79,2.13.62,16,.12,22.89-.13,0,.85-12,1.73-28.46,2.12-13.07.21-5.67-.54-7.94-.42-24.55-.15-20.91,1.47-41.3.86-8.08-.54-.36-1.07-2.15-1.46,10.64-.2,16.34.35,23.56.32l-8.89-.25c3.39-.18,10.5-.32,14.37-.16-6.78-.48-41.48-.09-60.42-.54-3.36.18-9.17.37-6.42.58l6-.07c5.51.43-11.28.6-3.69.8-8,.31-17,.79-28.37.54l-2.13-.61a87.19,87.19,0,0,0,10.58.18c-4.72.27-17.35-.83-22.52,0l7.93.42c-8.07.31-18,1-28.08.77,4.57.6,2.32-.07,9.44.64-6.18-.88,25.66,0,15.74-.89,7.31.82,12.65.35,22.21,1.05-.29-.2-3.38-.39,5-.29.38-.06,1.27-.13,1.84-.18l.57,0-.46,0c.36,0,.4,0-.18,0-2-.09-3.63-.2-4.29-.31,4.18-.47,17.57-.45,22.1-.69,5,.1-2.09.23.64.45l6.76-.36c.67.45,13.28.74,1.51,1l10.59,0c6.24.25,14.82.35,20.11.16,5,.1,12.62-.5,8.27-.15L179,284l.15.11c16.4.05,33.75-.75,52.49.07,5.52-.12,11.22-.26,20.45-.13l1.8.39c7.09-.14,21.28.39,24.33,0,7.64,1.05,34.39.23,46.85.42l.47-.51c8.58,0,16.8-.12,27.45-.32l-.66-.45c9.18-.37,23.6.32,38.12.28a62.45,62.45,0,0,1-7.27,0c17.35,1,36.6-.74,52.33,0,3.92-.16,6.76-.11,9.51,0-.37,0-.69,0-1,0h1.61l5.44.24c-1.64-.11-3.21-.2-4.58-.24,3,0,7.61-.06,12.11-.18l1.91.49,1,0c4.41.18,3.55-.23,1.19-.59,2.27-.08,4.34-.17,5.95-.29,3.58.78,11.79-.26,16.68.57,3-.41,22.6-.31,25-1.16.16.11,1.48.17-.94.18,5,.09,10,.19,14.51-.05l2.13.61,10.94-.82c6.64.37,9.4.59,2.8,1.06,15.94-.73,12.93-.27,26.49-1l-.66.39c4.84,0,12.59-.54,15.51-.22,10.84.76,53.62.11,81.44.81-5.39-1.17,12.94.52,14-.38,1.62.27,5.5.43,1,.67,14.2-.27,21.33.44,31.13-.33,1.63.28-3,.41-1.59.57a51.08,51.08,0,0,1,6-.07c1.45.16-2.08.23-4.33.35,14.51-.05,16-.9,17-1.7a95.45,95.45,0,0,0,16.32-.19c2.56.26,6.83.53-2.18.62,5.07,0,31,.39,31.49-.25,1.58.16,7.08,0,8.42,0,11.37,0,12.37.1,23.54,0l-3.09-.11c4.41-.77,9.28-.17,18.29-.26l-.26.07c20.65.56,8.92-.26,29.29.37l-1.11-.48c1.9-1,18,.61,29.87.22l-4.27-.28A86.49,86.49,0,0,1,883,283l6,.55,2.1.13,2.22.12,4.33.19c-.32-1.16-.64-2.28-1-3.32-.42-1.52.38.85,1.3,3.56l-3.28.06,3.45.07c-3.49-11.64-3.1-9.85-3.46-10.14-.23.09-.46.39-2.37-5.35-.39-2.32,1.74,2.6-.79-5.53-1-4.12-8.57-23.19-11.48-34.46.53,2.52,1,5-.92-.51-2.83-8.56-6.47-23.5-9.73-31a5.08,5.08,0,0,1-.3-1.61c-2.29-6.49-7.14-21.21-8.83-25-.36-6.57-13.79-40.53-12.28-40.85l-6.53-20.15.32.48c-4-12.93-5.83-17.38-7.62-21.8-.86-3,0-.88.13-.65C828.6,68.82,827.94,67,822.16,51.4l0-1.79c-.82-2.1-2.81-9-5.4-17.61-1.29-4.31-2.74-9.07-4.27-13.89-.77-2.41-1.56-4.83-2.33-7.24s-1.72-5.06-2.56-7.51a5.82,5.82,0,0,1,.35.75c.08.2.19.45.32.78s.2.54.34.9c-.25-.75-.51-1.5-.76-2.26-.32-.94-.63-1.89-.95-2.85l-5.52,0h-4.18L788.64.62,772.05.33c-10.47-.16-19.2-.14-23,.71l-14.4.44c18.63.14-2.78.78,4.89,1.08-7.33.11-19-.54-9.94-.63L731,2c3.31-.94-23.15-.34-22.65-1C671.72,1.09,636,.57,601.63.53l4,.73-12,0c-3.15-.17-4.22-.58,4.33-.54a71.47,71.47,0,0,0-8.89,0c-3,.16-5.57.39-5.69.47-16.74-.29,6.53-.85,1.4-.87l-7,.06,1.57.08c-5.65.3-6.15.62-16.42.58-6.5-.15-3.34-.45-5.89-.48a3.26,3.26,0,0,0-.81-.05c-.6,0-1.58,0-3.12,0L538,.47l6,.58c-6.69.28-14.19,0-7.23.62-10.22-1-56.3-.36-62.58-.68-9.37.43-18.62.42-30.08.37,2.85.12,4.55.77-5.33.69,3.61-1.34-18.1-.58-26.08-1.55,7.14.64-28.1.16-16.9,1.07-8.24-.11-.5-.5-6.76-.82-19.62.52-43.25-.34-67.51-.16-.38.17,3.69.44-1.52.7L307.26.42c-4.79.08-4.41,1-13.16.4,1.23.15,3.08.37-.13.43C246.44.39,196.85,2,148.58.34c6.54.34,2.18.37-2.81.39,3.25.08-.07.43.57.67L126.13.74c-3.68.66-21.66,0-23.77.67l6.4-.11c-8.52.75,11.9,1.66,10.66,2.62,9.53-.85,25.12,1.25,40.76,0,3.45.2-3,.31-1.1.53a144.31,144.31,0,0,1,17.61-.31l-1,.1c24.92-.1,35.6.3,63.59.57l-2.07-.47c6,.06,7.28.21,10.09.33,6.91-.72-16.89,0-10.6-.83,8,1,42.41,0,47.81,1.11,9.25,0-2.72-.55,6.53-.54l2.46.29,2.33-.38c6.07.06,9.13.43,9.36.69-1.47,0-4.19.07-5.76.09,7.86.35,22.18-.12,24.88,0L315.42,5c25.25-.28,56.08.11,80.48-.49l-1.85-.22c18.63-.42,14.92.24,35.37,0l-.74,0c4.09-.22,9.56-.33,15.16-.31-5.17.26,9.72.51,2.94.8,20.2-.44,10-.35,23.34-1.18l3.07.37c4.55-.33,4.93-.51,15.15-.61-8.38.32,6.52.57-2.87,1,21.44.81,31.83-.82,41.67.37,9.84-1-18.55-.57-13-.79-4.62-.34,8.12-.77,14.85-.67s11.65,1.32,28.87,1.3c-1.71,0-1.83.07-3.54.07,6.45.26,12.63-.36,20.54.07,4.43-.62,10.27,0,11.54-.76l-15.8.18c9-.2,17.36-1.13,32.12-.68-1.15.16-5.54.37-8.56.49,4.32.23,8.31-.16,12.78.08-1.27.79-19.2.17-28.8.78,4.63.33,18.16-.58,13.33.28,6.94-1.09,17,.14,28.64-.69l-.77.47c1.85-.07,5.67-.3,9.07-.29l-6.15.62c9.45-.53,18.21.46,27.27.17-19,0-4.26-.57-12.28-.92,23.39-.63,13.45,1.25,39.65,1-3.55.07-13.32-.29-7.77-.51,5,.1,11.57.28,14.63.53,17.35-.1-2.67-.49,4.72-.78,5.91.58,8.52-.23,16.13-.42l0,.48c19.78.31,5.25-1,23-.63l-7.53.67,9.29-.17-1.92.55c10.1-.41,13.24-.3,23.14-.15-2.3-.34,1.29-.87,10.05-.89,6,.29-3.35.46,9.07.39a52,52,0,0,1-11.28.24c-.55.15-2.76.3-3.33.45,6.43.33,16.16.08,20.66.07-1.73,0-3.8,0-4.86-.11l18-.67c2.84.18.59.33-1.64.47,3.65,0,6.17-.27,11.53-.31-1.39.39-1.05.79-8.64,1l7.6-.19,3.8-.1.95,0,.32,0,.61,0,.23.56a1,1,0,0,0,0,.24,2.36,2.36,0,0,0,.09.4c0,.18.09.38.14.58.21.82.45,1.79.67,2.65.43,1.73.74,3.06.33,2,2.68,9.13,7.82,22,11.37,34.08.27.6.74,1.83,1.61,4.37,3.52,11.31,6.25,21.45,11,34.66l1.76,7.8c3.49,10.43-2.44-10.54,3.38,6.82,4.16,12.28.9,4.79,2.1,9.18a281.49,281.49,0,0,1,9.47,28C844.34,133,843.5,130,842.33,126.49Zm41.55,129.09c-.9-2.48-2.79-7.37-3.1-9.29C882.21,249,882.67,251.26,883.88,255.58Zm-167.44,25a72,72,0,0,1,8.39.11C722.35,280.78,719.55,280.76,716.44,280.63ZM142.18,284l.28,0C148.32,284.16,146.24,284.08,142.18,284ZM130,283.78c-1.23.07-1.14.14-.62.21.84-.13,3.58-.13,6.69-.1A38.8,38.8,0,0,0,130,283.78ZM555.7.73l2.36.13C552.71,1,554.21.87,555.7.73Z"/><path class="cls-2" d="M739.81,280a3,3,0,0,1,1.13.27C742,280.16,742,280.06,739.81,280Z"/><path class="cls-2" d="M816.43,46.23l-.12-.4a1.83,1.83,0,0,0-.21-.37Z"/><path class="cls-2" d="M318.55,279.69c2.5.07,3.9.16,4.83.25C323.52,279.82,322.38,279.72,318.55,279.69Z"/><path class="cls-2" d="M65.51,284.6l7.8-.12c-3.78,0-5.12-.08-7-.16C66.46,284.43,68,284.6,65.51,284.6Z"/><path class="cls-2" d="M5.27,276.27c.29-1.1.73-2.3,1-3.39l-.3.23-1,3.12c-.26.89-.47,1.64-.57,2C4.25,279.07,4.47,278.63,5.27,276.27Z"/><path class="cls-2" d="M58.29,283c-.62-.41-5.51-.27-11-.19h1C46.68,283.38,52.5,283.19,58.29,283Z"/><path class="cls-2" d="M46.05,282.82c-1.68,0-3.4,0-5,0C40.37,283.06,43.05,282.88,46.05,282.82Z"/><path class="cls-2" d="M114.57,284.05c-2.59-.1-1.63.52-3.09.36C108.59,284.92,128.75,283.78,114.57,284.05Z"/><polygon class="cls-2" points="53.87 281.66 55.83 282.17 58.89 281.76 53.87 281.66"/><path class="cls-2" d="M97,282l-8.73-.14a8.35,8.35,0,0,1-2.33.17C91.3,282.08,97.2,282.18,97,282Z"/><path class="cls-2" d="M85.93,282.06c-2.8,0-5.47,0-7,.09C80.42,282.14,83.68,282.13,85.93,282.06Z"/><polygon class="cls-2" points="65.8 281.51 68.38 281.62 74.54 281.65 65.8 281.51"/><path class="cls-2" d="M190.8,282.13l9.52-.15c1-.17-1.62-.27-5.17-.2C192.87,281.9,189.34,282,190.8,282.13Z"/><path class="cls-2" d="M162,280.76a33.63,33.63,0,0,1,4.2.38l.29-.62Z"/><path class="cls-2" d="M189.77,280.61c.95-.17,13.82-.49,1.75-.45C190.55,280.33,181,280.47,189.77,280.61Z"/><polygon class="cls-2" points="333.27 281.4 330.85 281.4 331.2 282.42 333.27 281.4"/><path class="cls-2" d="M459.75,279c-11.28-.24-2.67.63-12.87.32-2.65.24,8.33.25,5.62.46C459.31,279.49,462.88,279.63,459.75,279Z"/><path class="cls-2" d="M452.5,279.74l-3.48.15C451,279.83,451.92,279.78,452.5,279.74Z"/><polygon class="cls-2" points="112.61 0.21 105.35 0 110.03 0.34 112.61 0.21"/><path class="cls-2" d="M98.67,1,97,.32,92.61.91C94.25.88,97.43.82,98.67,1Z"/><path class="cls-2" d="M888.77,275.18l.31.48a54.16,54.16,0,0,0-1.69-6Z"/><polygon class="cls-2" points="859.28 181.27 859.79 182.89 859.38 179.69 859.28 181.27"/><path class="cls-2" d="M833.44,102.81c1,3.22,2.33,7,3.34,10.19C834.44,106,833.86,101.72,833.44,102.81Z"/><path class="cls-3" d="M805.41,235.16s0,46.5,29.7,46.5,29.7-46.5,29.7-46.5Z"/><path class="cls-4" d="M92.61,2.66s0,46.5,29.7,46.5S152,2.66,152,2.66Z"/><path class="cls-5" d="M330.21,2.66s0,46.5,29.7,46.5,29.7-46.5,29.7-46.5Z"/><path class="cls-6" d="M270.81,2.66s0,46.5,29.7,46.5,29.7-46.5,29.7-46.5Z"/><path class="cls-7" d="M211.41,2.66s0,46.5,29.7,46.5,29.7-46.5,29.7-46.5Z"/><path class="cls-8" d="M152,2.66s0,46.5,29.7,46.5,29.7-46.5,29.7-46.5Z"/><path class="cls-9" d="M389.61,2.66s0,46.5,29.7,46.5S449,2.66,449,2.66Z"/><path class="cls-10" d="M449,2.66s0,46.5,29.7,46.5,29.7-46.5,29.7-46.5Z"/><path class="cls-11" d="M508.41,2.66s0,46.5,29.7,46.5,29.7-46.5,29.7-46.5Z"/><path class="cls-12" d="M567.81,2.66s0,46.5,29.7,46.5,29.7-46.5,29.7-46.5Z"/><path class="cls-13" d="M627.21,2.66s0,46.5,29.7,46.5,29.7-46.5,29.7-46.5Z"/><path class="cls-14" d="M686.61,2.66s0,46.5,29.7,46.5S746,2.66,746,2.66Z"/><path class="cls-15" d="M746,2.66s0,46.5,29.7,46.5,29.7-46.5,29.7-46.5Z"/><path class="cls-16" d="M92.61,49.16s0,46.5,29.7,46.5S152,49.16,152,49.16Z"/><path class="cls-17" d="M330.21,49.16s0,46.5,29.7,46.5,29.7-46.5,29.7-46.5Z"/><path class="cls-18" d="M270.81,49.16s0,46.5,29.7,46.5,29.7-46.5,29.7-46.5Z"/><path class="cls-19" d="M211.41,49.16s0,46.5,29.7,46.5,29.7-46.5,29.7-46.5Z"/><path class="cls-20" d="M152,49.16s0,46.5,29.7,46.5,29.7-46.5,29.7-46.5Z"/><path class="cls-21" d="M389.61,49.16s0,46.5,29.7,46.5S449,49.16,449,49.16Z"/><path class="cls-22" d="M449,49.16s0,46.5,29.7,46.5,29.7-46.5,29.7-46.5Z"/><path class="cls-23" d="M508.41,49.16s0,46.5,29.7,46.5,29.7-46.5,29.7-46.5Z"/><path class="cls-24" d="M567.81,49.16s0,46.5,29.7,46.5,29.7-46.5,29.7-46.5Z"/><path class="cls-25" d="M627.21,49.16s0,46.5,29.7,46.5,29.7-46.5,29.7-46.5Z"/><path class="cls-26" d="M686.61,49.16s0,46.5,29.7,46.5S746,49.16,746,49.16Z"/><path class="cls-27" d="M746,49.16s0,46.5,29.7,46.5,29.7-46.5,29.7-46.5Z"/><path class="cls-28" d="M92.61,95.66s0,46.5,29.7,46.5S152,95.66,152,95.66Z"/><path class="cls-29" d="M330.21,95.66s0,46.5,29.7,46.5,29.7-46.5,29.7-46.5Z"/><path class="cls-30" d="M270.81,95.66s0,46.5,29.7,46.5,29.7-46.5,29.7-46.5Z"/><path class="cls-31" d="M211.41,95.66s0,46.5,29.7,46.5,29.7-46.5,29.7-46.5Z"/><path class="cls-32" d="M152,95.66s0,46.5,29.7,46.5,29.7-46.5,29.7-46.5Z"/><path class="cls-33" d="M389.61,95.66s0,46.5,29.7,46.5S449,95.66,449,95.66Z"/><path class="cls-34" d="M449,95.66s0,46.5,29.7,46.5,29.7-46.5,29.7-46.5Z"/><path class="cls-35" d="M508.41,95.66s0,46.5,29.7,46.5,29.7-46.5,29.7-46.5Z"/><path class="cls-36" d="M567.81,95.66s0,46.5,29.7,46.5,29.7-46.5,29.7-46.5Z"/><path class="cls-37" d="M627.21,95.66s0,46.5,29.7,46.5,29.7-46.5,29.7-46.5Z"/><path class="cls-38" d="M686.61,95.66s0,46.5,29.7,46.5S746,95.66,746,95.66Z"/><path class="cls-39" d="M746,95.66s0,46.5,29.7,46.5,29.7-46.5,29.7-46.5Z"/><path class="cls-40" d="M92.61,142.16s0,46.5,29.7,46.5,29.7-46.5,29.7-46.5Z"/><path class="cls-41" d="M330.21,142.16s0,46.5,29.7,46.5,29.7-46.5,29.7-46.5Z"/><path class="cls-42" d="M270.81,142.16s0,46.5,29.7,46.5,29.7-46.5,29.7-46.5Z"/><path class="cls-43" d="M211.41,142.16s0,46.5,29.7,46.5,29.7-46.5,29.7-46.5Z"/><path class="cls-44" d="M152,142.16s0,46.5,29.7,46.5,29.7-46.5,29.7-46.5Z"/><path class="cls-45" d="M389.61,142.16s0,46.5,29.7,46.5,29.7-46.5,29.7-46.5Z"/><path class="cls-46" d="M449,142.16s0,46.5,29.7,46.5,29.7-46.5,29.7-46.5Z"/><path class="cls-47" d="M508.41,142.16s0,46.5,29.7,46.5,29.7-46.5,29.7-46.5Z"/><path class="cls-48" d="M567.81,142.16s0,46.5,29.7,46.5,29.7-46.5,29.7-46.5Z"/><path class="cls-49" d="M627.21,142.16s0,46.5,29.7,46.5,29.7-46.5,29.7-46.5Z"/><path class="cls-50" d="M686.61,142.16s0,46.5,29.7,46.5,29.7-46.5,29.7-46.5Z"/><path class="cls-51" d="M746,142.16s0,46.5,29.7,46.5,29.7-46.5,29.7-46.5Z"/><path class="cls-52" d="M92.61,188.66s0,46.5,29.7,46.5,29.7-46.5,29.7-46.5Z"/><path class="cls-53" d="M330.21,188.66s0,46.5,29.7,46.5,29.7-46.5,29.7-46.5Z"/><path class="cls-54" d="M270.81,188.66s0,46.5,29.7,46.5,29.7-46.5,29.7-46.5Z"/><path class="cls-55" d="M211.41,188.66s0,46.5,29.7,46.5,29.7-46.5,29.7-46.5Z"/><path class="cls-56" d="M152,188.66s0,46.5,29.7,46.5,29.7-46.5,29.7-46.5Z"/><path class="cls-57" d="M389.61,188.66s0,46.5,29.7,46.5,29.7-46.5,29.7-46.5Z"/><path class="cls-58" d="M449,188.66s0,46.5,29.7,46.5,29.7-46.5,29.7-46.5Z"/><path class="cls-59" d="M508.41,188.66s0,46.5,29.7,46.5,29.7-46.5,29.7-46.5Z"/><path class="cls-60" d="M567.81,188.66s0,46.5,29.7,46.5,29.7-46.5,29.7-46.5Z"/><path class="cls-61" d="M627.21,188.66s0,46.5,29.7,46.5,29.7-46.5,29.7-46.5Z"/><path class="cls-62" d="M686.61,188.66s0,46.5,29.7,46.5,29.7-46.5,29.7-46.5Z"/><path class="cls-63" d="M746,188.66s0,46.5,29.7,46.5,29.7-46.5,29.7-46.5Z"/><path class="cls-64" d="M92.61,235.16s0,46.5,29.7,46.5,29.7-46.5,29.7-46.5Z"/><path class="cls-65" d="M330.21,235.16s0,46.5,29.7,46.5,29.7-46.5,29.7-46.5Z"/><path class="cls-66" d="M270.81,235.16s0,46.5,29.7,46.5,29.7-46.5,29.7-46.5Z"/><path class="cls-67" d="M211.41,235.16s0,46.5,29.7,46.5,29.7-46.5,29.7-46.5Z"/><path class="cls-68" d="M152,235.16s0,46.5,29.7,46.5,29.7-46.5,29.7-46.5Z"/><path class="cls-69" d="M389.61,235.16s0,46.5,29.7,46.5,29.7-46.5,29.7-46.5Z"/><path class="cls-70" d="M449,235.16s0,46.5,29.7,46.5,29.7-46.5,29.7-46.5Z"/><path class="cls-71" d="M508.41,235.16s0,46.5,29.7,46.5,29.7-46.5,29.7-46.5Z"/><path class="cls-72" d="M567.81,235.16s0,46.5,29.7,46.5,29.7-46.5,29.7-46.5Z"/><path class="cls-73" d="M627.21,235.16s0,46.5,29.7,46.5,29.7-46.5,29.7-46.5Z"/><path class="cls-74" d="M686.61,235.16s0,46.5,29.7,46.5,29.7-46.5,29.7-46.5Z"/><path class="cls-75" d="M746,235.16s0,46.5,29.7,46.5,29.7-46.5,29.7-46.5Z"/><path class="cls-76" d="M33.21,235.16s0,46.5,29.7,46.5,29.7-46.5,29.7-46.5Z"/><path class="cls-77" d="M805.41,188.66s0,46.5,29.7,46.5,29.7-46.5,29.7-46.5Z"/><path class="cls-78" d="M33.21,188.66s0,46.5,29.7,46.5,29.7-46.5,29.7-46.5Z"/><path class="cls-79" d="M805.41,142.16s0,46.5,29.7,46.5S850,142.16,850,142.16Z"/><path class="cls-80" d="M48.06,142.16s-14.85,46.5,14.85,46.5,29.7-46.5,29.7-46.5Z"/><path class="cls-81" d="M805.41,95.66s0,46.5,22.27,46.5,7.43-46.5,7.43-46.5Z"/><path class="cls-82" d="M62.91,95.66s-14.85,46.5,7.42,46.5,22.28-46.5,22.28-46.5Z"/></svg>