<svg id="Layer_1" data-name="Layer 1" xmlns="http://www.w3.org/2000/svg" xmlns:xlink="http://www.w3.org/1999/xlink" viewBox="0 0 289 280"><defs><style>.cls-1,.cls-10,.cls-11,.cls-12,.cls-2,.cls-3,.cls-4,.cls-5,.cls-6,.cls-7,.cls-8,.cls-9{stroke:#fff;stroke-miterlimit:10;}.cls-1{fill:url(#linear-gradient);}.cls-2{fill:url(#linear-gradient-2);}.cls-3{fill:url(#linear-gradient-3);}.cls-4{fill:url(#linear-gradient-4);}.cls-5{fill:url(#linear-gradient-5);}.cls-6{fill:url(#linear-gradient-6);}.cls-7{fill:url(#linear-gradient-7);}.cls-8{fill:url(#linear-gradient-8);}.cls-9{fill:url(#linear-gradient-9);}.cls-10{fill:url(#linear-gradient-10);}.cls-11{fill:url(#linear-gradient-11);}.cls-12{fill:url(#linear-gradient-12);}</style><linearGradient id="linear-gradient" x1="45.5" y1="90.5" x2="90.5" y2="90.5" gradientUnits="userSpaceOnUse"><stop offset="0" stop-color="#67308f"/><stop offset="0.02" stop-color="#65308b"/><stop offset="0.19" stop-color="#53316b"/><stop offset="0.37" stop-color="#453253"/><stop offset="0.56" stop-color="#3b3341"/><stop offset="0.76" stop-color="#353336"/><stop offset="1" stop-color="#333"/></linearGradient><linearGradient id="linear-gradient-2" x1="198.5" y1="63.5" x2="243.5" y2="63.5" xlink:href="#linear-gradient"/><linearGradient id="linear-gradient-3" y1="225.5" y2="225.5" xlink:href="#linear-gradient"/><linearGradient id="linear-gradient-4" x1="90.5" y1="198.5" x2="144.5" y2="198.5" xlink:href="#linear-gradient"/><linearGradient id="linear-gradient-5" x1="198.5" y1="189.5" x2="243.5" y2="189.5" xlink:href="#linear-gradient"/><linearGradient id="linear-gradient-6" x1="144.5" y1="234.5" x2="198.5" y2="234.5" xlink:href="#linear-gradient"/><linearGradient id="linear-gradient-7" x1="243.5" y1="81.5" x2="288.5" y2="81.5" xlink:href="#linear-gradient"/><linearGradient id="linear-gradient-8" x1="243.5" y1="216.5" x2="288.5" y2="216.5" xlink:href="#linear-gradient"/><linearGradient id="linear-gradient-9" x1="0.5" y1="63.5" x2="45.5" y2="63.5" xlink:href="#linear-gradient"/><linearGradient id="linear-gradient-10" x1="0.5" y1="198.5" x2="45.5" y2="198.5" xlink:href="#linear-gradient"/><linearGradient id="linear-gradient-11" x1="90.5" y1="68" x2="144.5" y2="68" xlink:href="#linear-gradient"/><linearGradient id="linear-gradient-12" x1="144.5" y1="99.5" x2="198.5" y2="99.5" xlink:href="#linear-gradient"/></defs><title>wall</title><polygon class="cls-1" points="45.5 0.5 45.5 171.5 90.5 180.5 90.5 0.5 45.5 0.5"/><polygon class="cls-2" points="198.5 0.5 198.5 99.5 243.5 126.5 243.5 0.5 198.5 0.5"/><polygon class="cls-3" points="45.5 171.5 90.5 180.5 90.5 279.5 45.5 279.5 45.5 171.5"/><polygon class="cls-4" points="90.5 117.5 90.5 279.5 144.5 279.5 144.5 135.5 90.5 117.5"/><polygon class="cls-5" points="198.5 99.5 243.5 126.5 243.5 279.5 198.5 279.5 198.5 99.5"/><polygon class="cls-6" points="198.5 189.5 198.5 279.5 144.5 279.5 144.5 198.5 198.5 189.5"/><polygon class="cls-7" points="243.5 0.5 243.5 153.5 288.5 162.5 288.5 0.5 243.5 0.5"/><polygon class="cls-8" points="243.5 153.5 243.5 279.5 288.5 279.5 288.5 162.5 243.5 153.5"/><polygon class="cls-9" points="0.5 0.5 0.5 126.5 45.5 118.1 45.5 0.5 0.5 0.5"/><polygon class="cls-10" points="0.5 126.5 0.5 279.5 45.5 279.5 45.5 117.5 0.5 126.5"/><polygon class="cls-11" points="90.5 0.5 90.5 117.5 144.5 135.5 144.5 0.5 90.5 0.5"/><polygon class="cls-12" points="144.5 0.5 144.5 198.5 198.5 189.5 198.5 0.5 144.5 0.5"/></svg>