<svg id="Layer_1" data-name="Layer 1" xmlns="http://www.w3.org/2000/svg" xmlns:xlink="http://www.w3.org/1999/xlink" viewBox="0 0 289 280.23"><defs><style>.cls-1,.cls-3{fill:#412312;}.cls-1,.cls-10,.cls-11,.cls-12,.cls-13,.cls-14,.cls-15,.cls-16,.cls-17,.cls-18,.cls-2,.cls-3,.cls-5,.cls-6,.cls-7,.cls-8,.cls-9{stroke:#fff;}.cls-1,.cls-10,.cls-11,.cls-12,.cls-13,.cls-14,.cls-15,.cls-16,.cls-17,.cls-18,.cls-2,.cls-3,.cls-4,.cls-5,.cls-6,.cls-7,.cls-8,.cls-9{stroke-miterlimit:10;}.cls-1{stroke-width:0.5px;}.cls-2{fill:#4e4e4e;}.cls-4{fill:#231f20;stroke:#010101;}.cls-5{fill:url(#linear-gradient);}.cls-6{fill:url(#linear-gradient-2);}.cls-7{fill:url(#linear-gradient-3);}.cls-8{fill:url(#linear-gradient-4);}.cls-9{fill:url(#linear-gradient-5);}.cls-10{fill:url(#linear-gradient-6);}.cls-11{fill:url(#linear-gradient-7);}.cls-12{fill:url(#linear-gradient-8);}.cls-13{fill:url(#linear-gradient-9);}.cls-14{fill:url(#linear-gradient-10);}.cls-15{fill:url(#linear-gradient-11);}.cls-16{fill:url(#linear-gradient-12);}.cls-17{fill:url(#linear-gradient-13);}.cls-18{fill:url(#linear-gradient-14);}</style><linearGradient id="linear-gradient" x1="45.5" y1="53.65" x2="90.5" y2="53.65" gradientUnits="userSpaceOnUse"><stop offset="0" stop-color="#67308f"/><stop offset="0.02" stop-color="#65308b"/><stop offset="0.19" stop-color="#53316b"/><stop offset="0.37" stop-color="#453253"/><stop offset="0.56" stop-color="#3b3341"/><stop offset="0.76" stop-color="#353336"/><stop offset="1" stop-color="#333"/></linearGradient><linearGradient id="linear-gradient-2" x1="90.5" y1="29.59" x2="144.5" y2="29.59" xlink:href="#linear-gradient"/><linearGradient id="linear-gradient-3" x1="144.5" y1="29.59" x2="198.5" y2="29.59" xlink:href="#linear-gradient"/><linearGradient id="linear-gradient-4" x1="198.5" y1="53.65" x2="243.5" y2="53.65" xlink:href="#linear-gradient"/><linearGradient id="linear-gradient-5" x1="216.5" y1="173.9" x2="243.5" y2="173.9" xlink:href="#linear-gradient"/><linearGradient id="linear-gradient-6" y1="173.9" x2="72.5" y2="173.9" xlink:href="#linear-gradient"/><linearGradient id="linear-gradient-7" y1="265.3" y2="265.3" xlink:href="#linear-gradient"/><linearGradient id="linear-gradient-8" x1="90.5" y1="265.3" x2="144.5" y2="265.3" xlink:href="#linear-gradient"/><linearGradient id="linear-gradient-9" x1="198.5" y1="265.3" x2="243.5" y2="265.3" xlink:href="#linear-gradient"/><linearGradient id="linear-gradient-10" x1="144.5" y1="265.3" x2="198.5" y2="265.3" xlink:href="#linear-gradient"/><linearGradient id="linear-gradient-11" x1="243.5" y1="72.89" x2="288.5" y2="72.89" xlink:href="#linear-gradient"/><linearGradient id="linear-gradient-12" x1="243.5" y1="207.58" x2="288.5" y2="207.58" xlink:href="#linear-gradient"/><linearGradient id="linear-gradient-13" x1="0.5" y1="72.89" x2="45.5" y2="72.89" xlink:href="#linear-gradient"/><linearGradient id="linear-gradient-14" x1="0.5" y1="207.58" x2="45.5" y2="207.58" xlink:href="#linear-gradient"/></defs><title>window2</title><polygon class="cls-1" points="144.5 19.97 72.5 96.94 72.5 222.01 216.5 222.01 216.5 96.94 144.5 19.97"/><polygon class="cls-2" points="144.5 0.73 45.5 106.56 54.5 116.18 144.5 19.97 234.5 116.18 243.5 106.56 144.5 0.73"/><rect class="cls-3" x="63.5" y="222.01" width="162" height="9.62"/><polygon class="cls-3" points="54.5 231.63 234.5 231.63 243.5 241.25 243.5 250.87 45.5 250.87 45.5 241.25 54.5 231.63"/><path class="cls-4" d="M88.6,89.34l37.44-40c3.49-3.73,9.46-1.09,9.46,4.19V125.8h-54V107.68A26.92,26.92,0,0,1,88.6,89.34Z"/><path class="cls-4" d="M153.5,52.85V125.8h54V107a25.21,25.21,0,0,0-6.66-17.19l-38.32-41C159.19,45.3,153.5,47.82,153.5,52.85Z"/><rect class="cls-4" x="81.5" y="135.42" width="54" height="76.97"/><rect class="cls-4" x="153.5" y="135.42" width="54" height="76.97"/><polygon class="cls-5" points="45.5 0.73 45.5 106.56 90.5 58.46 90.5 0.73 45.5 0.73"/><polygon class="cls-6" points="90.5 0.73 90.5 58.46 144.5 0.73 90.5 0.73"/><polygon class="cls-7" points="198.5 0.73 144.5 0.73 198.5 58.46 198.5 0.73"/><polygon class="cls-8" points="198.5 0.73 198.5 58.46 243.5 106.56 243.5 0.73 198.5 0.73"/><polygon class="cls-9" points="216.5 116.18 216.5 212.39 243.5 231.63 243.5 116.18 216.5 116.18"/><polygon class="cls-10" points="72.5 116.18 45.5 116.18 45.5 231.63 72.5 212.39 72.5 116.18"/><rect class="cls-11" x="45.5" y="250.87" width="45" height="28.86"/><rect class="cls-12" x="90.5" y="250.87" width="54" height="28.86"/><rect class="cls-13" x="198.5" y="250.87" width="45" height="28.86"/><rect class="cls-14" x="144.5" y="250.87" width="54" height="28.86"/><polygon class="cls-15" points="243.5 0.73 243.5 135.42 288.5 145.04 288.5 0.73 243.5 0.73"/><polygon class="cls-16" points="243.5 135.42 243.5 279.73 288.5 279.73 288.5 145.04 243.5 135.42"/><polygon class="cls-17" points="0.5 0.73 0.5 145.04 45.5 135.42 45.5 0.73 0.5 0.73"/><polygon class="cls-18" points="0.5 145.04 0.5 279.73 45.5 279.73 45.5 135.42 0.5 145.04"/></svg>